<?xml version="1.0" encoding="utf-8"?>
<!-- Generator: Adobe Illustrator 28.0.0, SVG Export Plug-In . SVG Version: 6.00 Build 0)  -->
<svg version="1.1" id="Слой_1" xmlns="http://www.w3.org/2000/svg" xmlns:xlink="http://www.w3.org/1999/xlink" x="0px" y="0px"
	 viewBox="0 0 1000.3328247 976.5230103" enable-background="new 0 0 1000.3328247 976.5230103" xml:space="preserve">
<g>
	<defs>
		<path id="SVGID_1_" d="M238.0490875,0.9201257h524.564209c131.2879639,0,237.7178955,106.4299164,237.7178955,237.7179108
			v499.2076111c0,131.2879639-106.4299316,237.7178955-237.7178955,237.7178955h-524.564209
			c-131.2879944,0-237.7179108-106.4299316-237.7179108-237.7178955V238.638031
			C0.3311762,107.3500443,106.7610931,0.9201257,238.0490875,0.9201257z"/>
	</defs>
	<clipPath id="SVGID_00000180351908301278489720000009416359999667215021_">
		<use xlink:href="#SVGID_1_"  overflow="visible"/>
	</clipPath>
	<g clip-path="url(#SVGID_00000180351908301278489720000009416359999667215021_)">
		<path fill="#FFFFFF" d="M238.0490875,0.9201257h524.564209c131.2879639,0,237.7178955,106.4299164,237.7178955,237.7179108
			v499.2076111c0,131.2879639-106.4299316,237.7178955-237.7178955,237.7178955h-524.564209
			c-131.2879944,0-237.7179108-106.4299316-237.7179108-237.7178955V238.638031
			C0.3311762,107.3500443,106.7610931,0.9201257,238.0490875,0.9201257z"/>
		
			<linearGradient id="SVGID_00000165199480665892849360000015612154117362396052_" gradientUnits="userSpaceOnUse" x1="279.0612488" y1="-272.0805054" x2="378.6127319" y2="1435.7484131" gradientTransform="matrix(-1 0 0 -1 821.8103638 946.6977539)">
			<stop  offset="0" style="stop-color:#160451"/>
			<stop  offset="0.711152" style="stop-color:#31077F"/>
			<stop  offset="1" style="stop-color:#26065A"/>
		</linearGradient>
		
			<rect x="-300" y="-45" fill="url(#SVGID_00000165199480665892849360000015612154117362396052_)" width="1600.3327637" height="1066.5229492"/>
		
			<radialGradient id="SVGID_00000124852022503917058680000017674243914024146070_" cx="0.6845654" cy="987.6339722" r="1.5847861" gradientTransform="matrix(-977.5546875 1053.887085 -434.6300049 -403.1500244 430350.5 397429.875)" gradientUnits="userSpaceOnUse">
			<stop  offset="0" style="stop-color:#0E04C3;stop-opacity:0.7"/>
			<stop  offset="1" style="stop-color:#30027F;stop-opacity:0"/>
		</radialGradient>
		
			<rect x="-300" y="-45" fill="url(#SVGID_00000124852022503917058680000017674243914024146070_)" fill-opacity="0.54" width="1600.3327637" height="1066.5229492"/>
		
			<radialGradient id="SVGID_00000137114146565696559950000006557076049676686262_" cx="0.6555326" cy="986.8250732" r="1.5847861" gradientTransform="matrix(-1146.1196289 361.8694153 -139.950592 -443.2541504 139551.15625 438260.46875)" gradientUnits="userSpaceOnUse">
			<stop  offset="0" style="stop-color:#000000;stop-opacity:0.7"/>
			<stop  offset="0.81203" style="stop-color:#30027F;stop-opacity:0"/>
		</radialGradient>
		
			<rect x="-300" y="-45" fill="url(#SVGID_00000137114146565696559950000006557076049676686262_)" fill-opacity="0.8" width="1600.3327637" height="1066.5229492"/>
		<g>
			<defs>
				
					<rect id="SVGID_00000032606109717380264250000006423029633061322143_" x="272.9143677" y="181.5857391" width="454.8335876" height="587.9556274"/>
			</defs>
			<clipPath id="SVGID_00000078027209009375918870000001870357189853812622_">
				<use xlink:href="#SVGID_00000032606109717380264250000006423029633061322143_"  overflow="visible"/>
			</clipPath>
			<g clip-path="url(#SVGID_00000078027209009375918870000001870357189853812622_)">
				<path fill="#FFFFFF" d="M500.0475159,316.0896912c-125.1775208,0-227.1331482,101.0190125-227.1331482,227.009491
					c0,125.4231567,101.9556274,226.4421997,227.1331482,226.4421997c125.7447815,0,227.70047-101.019043,227.70047-226.4421997
					C727.7479858,417.1087036,625.7922974,316.0896912,500.0475159,316.0896912z M500.0475159,674.7648315
					c-69.6688232,0-126.8764038-61.8605957-126.8764038-131.6656494c0-70.3739624,57.2075806-132.2329407,126.8764038-132.2329407
					c70.2361145,0,127.4437561,61.8589783,127.4437561,132.2329407
					C627.491272,612.9042358,570.2836304,674.7648315,500.0475159,674.7648315z"/>
				<path fill="#FFFFFF" d="M369.771759,282.037384c27.1885681,0,49.8446655-22.7004395,49.8446655-50.5086823
					c0-27.2424774-22.6560974-49.9429626-49.8446655-49.9429626c-27.754364,0-50.4104614,22.7004852-50.4104614,49.9429626
					c0.0285339,13.386673,5.3502502,26.2154999,14.7971497,35.6814423
					C343.6069336,276.6760559,356.4104309,282.0072937,369.771759,282.037384z"/>
				<path fill="#FFFFFF" d="M630.3232422,282.037384c27.1885986,0,49.8446655-22.7004395,49.8446655-50.5086823
					c0-27.2424774-22.6560669-49.9429626-49.8446655-49.9429626c-27.7543335,0-50.4104614,22.7004852-50.4104614,49.9429626
					c0.0300903,13.386673,5.3502808,26.2154999,14.7971802,35.6814423
					C604.1584473,276.6760559,616.963501,282.0072937,630.3232422,282.037384z"/>
				<path fill="#FFFFFF" d="M500.0475159,282.037384c27.1885681,0,49.844696-22.7004395,49.844696-50.5086823
					c0-27.2424774-22.6561279-49.9429626-49.844696-49.9429626c-27.754364,0-50.4104919,22.7004852-50.4104919,49.9429626
					c0.0301514,13.386673,5.3502502,26.2154999,14.7971497,35.6814423
					C473.8826904,276.6760559,486.6877441,282.0072937,500.0475159,282.037384z"/>
			</g>
		</g>
	</g>
</g>
</svg>
